<?xml version="1.0" standalone="no"?>
<!DOCTYPE svg PUBLIC "-//W3C//DTD SVG 20010904//EN"
 "http://www.w3.org/TR/2001/REC-SVG-20010904/DTD/svg10.dtd">
<svg version="1.0" xmlns="http://www.w3.org/2000/svg"
 width="600.000000pt" height="600.000000pt" viewBox="0 0 600.000000 600.000000"
 preserveAspectRatio="xMidYMid meet">
<metadata>
Created by potrace 1.14, written by Peter Selinger 2001-2017
</metadata>
<g transform="translate(0.000000,600.000000) scale(0.100000,-0.100000)"
fill="#000000" stroke="none">
<path d="M3568 5799 c-6 -4 -39 -6 -73 -6 -70 0 -111 -23 -133 -73 -14 -32
-13 -148 3 -163 6 -7 17 -28 23 -47 11 -31 10 -37 -8 -60 -11 -14 -25 -37 -31
-53 -6 -15 -19 -32 -29 -37 -22 -12 -80 -115 -80 -142 0 -14 -8 -18 -40 -18
-35 0 -48 -7 -88 -45 -26 -25 -51 -45 -56 -45 -10 0 -136 -133 -151 -160 -9
-16 -88 -107 -170 -196 -16 -18 -40 -46 -52 -62 -13 -17 -36 -32 -54 -36 -78
-15 -219 -100 -219 -131 0 -7 -15 -17 -32 -20 -56 -12 -90 -34 -179 -117 -32
-30 -34 -37 -16 -61 11 -14 18 -15 69 -2 32 7 69 22 84 34 15 12 34 21 43 21
9 0 35 11 59 25 23 13 59 27 80 31 20 4 49 13 64 20 15 8 36 14 47 14 11 0 32
7 48 15 15 8 45 17 66 20 20 3 37 10 37 15 0 8 67 43 108 55 12 3 22 10 22 15
0 14 36 18 53 5 10 -7 22 -33 27 -59 6 -25 15 -67 21 -93 19 -89 29 -158 35
-243 3 -47 9 -103 14 -124 5 -22 7 -43 5 -46 -2 -4 2 -28 10 -54 9 -30 12 -65
8 -94 -3 -26 -6 -69 -7 -97 -2 -63 -11 -90 -49 -137 -35 -44 -87 -62 -150 -53
-25 4 -61 0 -89 -8 -41 -13 -48 -13 -48 -1 0 8 4 14 9 14 18 0 58 100 55 138
-9 124 -9 122 -85 194 -39 37 -78 70 -87 73 -14 5 -63 59 -90 101 -12 19 -126
80 -162 87 -19 4 -44 18 -55 32 -11 14 -36 27 -57 31 l-38 6 0 -43 c0 -32 13
-71 50 -144 27 -55 50 -106 50 -112 0 -7 5 -13 10 -13 6 0 10 -7 10 -15 0 -40
124 -219 160 -230 11 -3 22 -21 27 -43 7 -33 15 -40 81 -73 l73 -36 -41 -22
c-22 -11 -56 -21 -75 -21 -20 0 -43 -4 -53 -10 -9 -5 -71 -23 -137 -41 -66
-18 -127 -37 -135 -44 -30 -24 -284 -43 -426 -32 -62 5 -74 3 -93 -14 -29 -27
-26 -50 10 -85 17 -16 43 -52 59 -80 40 -68 100 -136 143 -159 l36 -19 49 27
c27 15 56 27 64 27 7 0 21 9 31 20 9 11 26 20 36 20 11 0 23 5 26 10 3 6 17
10 30 10 23 0 94 24 162 55 17 8 35 15 40 15 4 0 21 11 37 25 16 14 34 25 40
26 6 0 25 3 41 5 17 2 57 6 90 8 33 2 83 9 110 15 82 20 79 21 76 -29 -4 -72
-37 -126 -143 -233 -54 -55 -98 -105 -98 -112 0 -6 -26 -38 -58 -71 -33 -32
-80 -85 -105 -116 -53 -66 -292 -306 -327 -328 -13 -8 -48 -41 -79 -73 -31
-31 -94 -88 -141 -125 -47 -37 -86 -76 -89 -87 -2 -11 -12 -26 -23 -34 -33
-22 -7 -31 65 -21 45 7 75 7 87 0 34 -18 59 -11 108 32 146 127 277 228 293
228 5 0 9 7 9 15 0 8 10 21 23 28 40 25 71 46 132 92 33 25 83 56 110 69 28
13 57 31 65 41 7 9 57 45 109 80 69 46 99 72 108 94 6 17 22 35 35 40 12 5 39
24 59 42 20 19 54 48 75 65 l40 32 14 -27 c10 -19 14 -77 16 -213 2 -116 7
-195 14 -208 8 -16 8 -25 0 -35 -7 -8 -7 -15 -1 -19 9 -6 51 -86 51 -99 0 -4
-10 -7 -22 -7 -13 -1 -34 -7 -48 -15 -14 -8 -40 -14 -58 -15 -18 0 -40 -7 -49
-16 -9 -8 -21 -13 -28 -10 -15 5 -104 -26 -140 -50 -13 -9 -29 -13 -36 -9 -6
4 -21 2 -32 -4 -12 -6 -58 -22 -102 -37 -44 -14 -101 -37 -127 -50 -26 -13
-64 -26 -85 -29 -21 -2 -50 -7 -64 -10 -14 -3 -86 -7 -160 -9 -120 -3 -140 -6
-191 -31 -32 -14 -58 -30 -59 -33 0 -4 -3 -18 -5 -32 -2 -13 2 -41 11 -62 8
-21 15 -50 15 -63 0 -14 4 -25 10 -25 5 0 19 -20 30 -45 11 -25 25 -45 30 -45
6 0 10 -8 10 -19 0 -10 7 -24 15 -31 8 -6 17 -22 21 -33 4 -12 17 -38 30 -58
13 -21 25 -61 29 -95 4 -32 13 -73 21 -91 8 -17 11 -38 8 -47 -3 -9 -1 -22 5
-30 18 -22 42 -127 36 -157 -4 -15 -2 -36 4 -46 18 -34 39 -118 32 -126 -11
-11 -1 -220 11 -234 6 -7 12 -52 13 -99 2 -66 7 -89 19 -96 8 -5 22 -23 31
-42 26 -54 97 -116 146 -127 43 -10 45 -9 76 25 22 24 33 46 33 65 0 17 4 32
9 36 5 3 13 20 16 37 11 50 30 61 122 72 18 2 47 13 65 25 18 11 49 28 68 37
19 8 59 27 88 40 40 19 57 22 71 14 35 -18 110 -8 216 30 74 27 97 31 245 41
74 5 175 13 224 18 99 11 128 4 119 -29 -4 -14 6 -32 29 -58 19 -21 49 -72 66
-113 21 -51 46 -90 77 -121 43 -43 45 -48 39 -86 -4 -29 -2 -47 9 -62 10 -15
14 -36 11 -66 -3 -27 -1 -44 5 -44 6 0 16 -18 22 -40 7 -22 20 -42 30 -45 11
-4 25 -12 32 -18 38 -35 54 -37 109 -14 29 12 59 28 66 35 7 6 18 12 23 12 5
0 9 5 9 10 0 6 21 32 48 58 112 114 190 199 208 227 23 37 33 50 60 78 20 22
24 34 44 123 5 23 20 70 35 105 22 56 25 76 25 190 0 70 4 130 9 133 5 3 5 26
0 52 -5 25 -11 156 -13 290 -3 134 -7 248 -10 253 -3 5 -1 33 4 62 6 30 12 88
15 129 2 42 10 88 19 105 9 17 16 38 16 47 0 9 7 24 17 33 17 18 29 99 19 138
-6 25 -96 94 -153 116 -18 7 -38 20 -44 28 -7 8 -36 30 -66 49 -29 19 -79 51
-110 72 -97 62 -154 92 -178 92 -7 0 -18 7 -25 15 -9 11 -29 14 -79 11 -62 -3
-99 -15 -211 -71 -14 -7 -52 -18 -85 -26 -33 -7 -68 -19 -77 -26 -9 -8 -27
-13 -40 -12 -13 2 -32 0 -43 -4 -11 -3 -45 -9 -75 -12 -30 -3 -80 -15 -110
-25 -72 -25 -134 -34 -154 -23 -14 8 -14 13 5 48 38 73 45 157 34 407 l-7 146
23 13 c21 12 88 17 244 20 42 1 139 -17 162 -29 11 -6 67 -13 124 -16 57 -3
131 -11 164 -17 33 -6 80 -12 105 -15 74 -7 170 -25 265 -51 80 -21 148 -34
400 -77 39 -6 80 -17 92 -24 12 -6 35 -13 51 -15 16 -2 45 -14 65 -26 20 -12
41 -20 46 -17 5 4 29 2 53 -3 24 -5 77 -11 119 -12 74 -3 76 -2 122 35 25 21
49 47 53 58 14 46 11 124 -6 164 -20 48 -73 102 -106 110 -15 4 -24 15 -26 32
-2 20 -15 32 -58 53 -83 42 -136 55 -155 39 -13 -11 -19 -10 -35 8 -13 14 -37
22 -77 27 -32 3 -92 10 -133 16 -78 11 -321 6 -341 -7 -6 -4 -131 -8 -276 -10
-174 -2 -270 -7 -278 -14 -9 -7 -52 -10 -114 -9 -66 2 -105 -1 -114 -9 -9 -8
-41 -11 -83 -10 -38 2 -109 -1 -159 -5 -122 -10 -123 -9 -131 124 l-6 104 33
17 c46 24 240 70 348 84 29 3 69 15 88 26 48 29 208 68 279 68 41 0 74 7 104
21 35 17 55 20 99 16 31 -3 63 -1 74 5 11 6 61 11 111 12 56 2 113 9 147 21
50 16 60 24 87 69 41 67 34 100 -33 167 -69 69 -137 105 -232 125 l-80 16 -59
-31 c-32 -17 -67 -37 -78 -44 -15 -9 -19 -9 -23 1 -11 29 -106 12 -196 -35
-15 -8 -35 -13 -45 -12 -24 3 -74 -11 -92 -26 -31 -25 -214 -106 -228 -100 -8
3 -21 0 -29 -6 -7 -7 -16 -9 -20 -6 -3 3 -17 0 -32 -7 -14 -8 -46 -17 -71 -21
-25 -4 -49 -11 -55 -15 -15 -10 -68 -5 -73 8 -6 20 19 92 33 93 8 1 19 2 24 3
5 0 19 13 30 28 12 15 56 48 99 75 42 26 100 63 127 83 28 20 82 55 120 78 39
22 102 61 141 86 39 25 74 46 78 46 13 0 112 67 139 94 21 21 35 26 77 26 28
0 64 7 81 15 16 9 34 13 39 10 13 -8 68 19 110 55 25 21 37 26 47 19 6 -6 21
-8 33 -4 17 6 20 14 18 58 -1 29 1 59 5 68 11 22 -45 95 -85 112 -38 16 -159
99 -178 122 -7 8 -19 15 -27 15 -8 0 -25 11 -38 24 -40 40 -133 78 -214 87
-72 8 -75 7 -106 -19 -18 -15 -38 -37 -44 -50 -13 -27 -15 -82 -2 -82 33 0 14
-92 -26 -125 -18 -15 -24 -31 -26 -62 -1 -24 -5 -43 -9 -43 -4 0 -10 -23 -14
-51 -6 -46 -25 -79 -50 -90 -20 -9 -64 -80 -64 -103 0 -14 -4 -26 -10 -26 -5
0 -19 -18 -30 -40 -12 -23 -27 -43 -35 -47 -8 -3 -15 -10 -15 -16 0 -11 -44
-73 -107 -149 -24 -29 -43 -57 -43 -63 0 -9 -50 -45 -63 -45 -10 0 -14 97 -6
160 4 38 4 81 -1 98 -6 23 -5 34 5 42 9 8 13 33 13 78 -1 37 5 92 12 122 19
85 15 145 -15 185 -14 18 -36 36 -49 39 -12 3 -28 17 -34 31 -6 14 -16 25 -22
25 -5 0 -10 4 -10 9 0 14 61 70 92 83 15 7 35 27 43 44 13 27 19 30 52 29 21
-1 49 4 63 10 14 7 53 26 87 44 34 17 72 31 85 31 13 0 32 7 42 15 11 8 30 15
43 15 12 0 27 9 33 20 6 11 17 20 25 20 8 0 18 6 22 13 8 14 79 42 143 56 58
14 70 22 91 62 11 22 23 39 28 39 14 0 34 97 26 127 -3 14 -15 38 -26 51 -10
14 -19 31 -19 38 0 19 -47 67 -59 60 -5 -3 -18 4 -28 17 -10 13 -26 21 -36 19
-11 -2 -29 5 -40 16 -26 24 -111 72 -127 72 -7 0 -19 9 -28 19 -10 10 -53 38
-97 62 -44 23 -92 51 -107 62 -27 20 -80 28 -100 16z m522 -3592 c114 -18 160
-39 160 -71 0 -17 10 -31 34 -46 40 -24 52 -50 37 -78 -6 -11 -9 -21 -7 -23
10 -10 38 -347 38 -449 1 -81 -14 -299 -24 -350 -5 -30 -9 -69 -9 -87 1 -17
-6 -44 -14 -60 -8 -15 -15 -36 -15 -45 0 -9 -4 -20 -10 -23 -5 -3 -10 -17 -10
-30 0 -27 -49 -67 -83 -67 -12 0 -40 5 -62 11 -22 5 -50 8 -61 5 -27 -7 -33 2
-44 73 -11 66 -25 81 -98 112 -50 21 -65 22 -205 17 -84 -2 -176 -7 -205 -9
-41 -4 -54 -1 -61 11 -11 20 2 55 33 92 40 48 51 87 38 136 -7 25 -12 48 -12
53 0 18 47 60 75 67 17 4 35 10 40 14 6 3 53 22 105 40 110 39 201 104 220
158 15 41 4 56 -59 84 -25 11 -61 27 -80 36 -41 20 -174 23 -193 4 -19 -19
-61 -14 -79 11 -24 33 -30 128 -14 205 32 150 35 158 75 176 20 9 57 20 81 24
25 5 54 14 64 21 25 14 223 8 345 -12z m-1013 -210 c18 -26 23 -51 27 -132 3
-55 8 -120 11 -145 4 -31 1 -55 -9 -75 -15 -29 -40 -41 -211 -97 -63 -21 -90
-31 -140 -53 -16 -8 -46 -18 -66 -25 -52 -15 -72 -40 -60 -73 11 -28 38 -47
68 -47 10 0 30 -6 45 -14 51 -27 97 -38 114 -28 11 6 28 6 44 0 17 -5 36 -5
54 2 28 10 124 4 146 -10 15 -9 22 -67 21 -170 -1 -68 -4 -77 -28 -97 -14 -13
-33 -23 -41 -23 -8 0 -29 -9 -47 -20 -37 -23 -124 -52 -136 -45 -4 3 -27 -4
-53 -15 -25 -12 -60 -20 -78 -20 -18 1 -54 -2 -79 -6 -34 -5 -49 -3 -55 7 -13
20 -44 144 -54 218 -5 35 -14 77 -19 95 -11 35 -28 143 -40 256 -5 41 -19 118
-31 170 -13 52 -23 113 -24 135 -1 39 0 40 61 70 95 46 133 61 198 80 74 22
114 35 140 45 32 13 137 40 170 43 17 2 35 5 40 5 6 1 20 -13 32 -31z"/>
<path d="M1029 5088 l-56 -10 -1 -43 c0 -35 5 -48 29 -71 16 -15 29 -34 29
-41 0 -8 16 -21 35 -29 21 -8 35 -21 35 -32 0 -9 9 -35 20 -57 33 -67 64 -139
65 -152 0 -6 10 -22 23 -35 46 -47 82 -96 82 -112 0 -9 3 -16 8 -16 14 0 63
-51 57 -60 -3 -5 4 -11 15 -15 11 -3 20 -11 20 -16 0 -14 79 -92 109 -109 13
-7 61 -15 105 -17 80 -5 82 -5 125 28 102 78 145 195 102 275 -12 21 -21 45
-21 52 0 7 -9 30 -19 51 -20 38 -35 52 -146 139 -33 25 -64 52 -68 59 -4 7
-25 20 -45 28 -20 9 -41 21 -47 28 -39 50 -181 130 -212 120 -6 -2 -27 3 -46
11 -20 8 -45 12 -55 9 -11 -2 -33 2 -50 11 -17 9 -32 15 -34 15 -2 -1 -28 -6
-59 -11z"/>
<path d="M410 3575 c-11 -13 -11 -23 1 -57 12 -38 109 -194 128 -208 18 -13
51 -70 51 -89 0 -12 4 -21 9 -21 12 0 61 -84 61 -105 0 -8 7 -18 15 -22 9 -3
24 -22 34 -42 11 -20 35 -49 55 -66 19 -16 41 -42 47 -57 6 -15 17 -28 24 -28
6 0 39 -25 73 -55 75 -69 107 -86 136 -75 12 4 34 6 48 3 21 -4 31 2 54 34 15
21 33 43 39 48 16 14 29 131 15 140 -5 3 -10 19 -10 34 0 37 -27 100 -45 108
-8 3 -15 15 -15 27 0 11 -20 43 -43 70 -58 67 -170 175 -182 176 -5 0 -30 14
-55 30 -25 16 -52 30 -61 30 -9 0 -23 7 -30 16 -8 9 -32 25 -54 34 -22 9 -46
25 -54 34 -7 9 -27 16 -43 16 -16 0 -39 6 -51 14 -12 8 -47 17 -78 20 -44 6
-58 4 -69 -9z"/>
<path d="M1811 2784 c-12 -15 -21 -33 -21 -41 0 -20 -29 -74 -55 -103 -12 -14
-34 -46 -48 -72 -15 -26 -35 -56 -47 -68 -11 -11 -20 -27 -20 -35 0 -8 -20
-44 -45 -81 -25 -36 -45 -70 -45 -75 0 -5 -17 -32 -37 -59 -21 -26 -58 -83
-83 -125 -25 -42 -57 -92 -72 -110 -16 -18 -28 -38 -28 -45 0 -16 -59 -100
-70 -100 -6 0 -10 -9 -10 -19 0 -11 -11 -32 -25 -47 -14 -15 -37 -52 -51 -83
-15 -31 -47 -78 -73 -106 -26 -27 -64 -72 -86 -100 -22 -27 -52 -59 -66 -72
-14 -12 -31 -41 -39 -65 -21 -65 -32 -74 -107 -81 -76 -7 -113 -27 -113 -61 0
-13 -6 -39 -14 -57 -15 -38 -8 -138 13 -177 7 -13 9 -26 7 -31 -3 -5 0 -11 8
-14 7 -3 29 -32 47 -64 18 -32 52 -83 76 -115 24 -31 43 -63 43 -71 0 -8 7
-20 15 -27 8 -7 15 -16 15 -21 0 -18 51 -90 68 -96 9 -4 33 -16 52 -27 27 -16
48 -20 95 -17 75 4 87 10 127 69 17 26 38 52 46 58 9 6 12 15 9 21 -3 5 5 41
18 79 14 38 25 87 25 109 0 22 7 67 15 100 8 33 15 76 15 96 0 19 12 64 26
100 37 93 44 118 49 172 2 27 10 67 18 90 32 92 39 120 44 171 5 44 11 58 33
74 33 25 60 79 60 122 0 34 21 81 49 109 10 10 23 46 30 82 21 104 49 198 64
217 5 7 11 25 13 40 11 112 37 215 76 299 15 34 28 67 28 73 0 6 6 21 14 33 7
12 16 52 19 89 6 60 4 69 -13 78 -25 14 -26 14 -49 -16z"/>
</g>
</svg>
